<svg width="47" height="40" viewBox="0 0 47 40" fill="none" xmlns="http://www.w3.org/2000/svg">
<path d="M16.5098 24V17.6367H16.4219L12.1152 24H10.8379V15.5449H12.1387V21.9258H12.2266L16.5332 15.5449H17.8105V24H16.5098ZM22.6121 18.8379H19.7879V24H18.5281V17.8359H22.6121V18.8379ZM26.0895 17.7363C26.8746 17.7363 27.5035 18.0234 27.9762 18.5977C28.4488 19.1719 28.6852 19.9453 28.6852 20.918C28.6852 21.8906 28.4508 22.666 27.982 23.2441C27.5133 23.8184 26.8902 24.1055 26.1129 24.1055C25.6754 24.1055 25.2867 24.0059 24.9469 23.8066C24.6109 23.6074 24.3531 23.334 24.1734 22.9863H24.1441V26.0391H22.8785V17.8359H24.1031V18.8965H24.1266C24.3102 18.5371 24.5738 18.2539 24.9176 18.0469C25.2613 17.8398 25.652 17.7363 26.0895 17.7363ZM25.7555 23.0332C26.2555 23.0332 26.652 22.8438 26.9449 22.4648C27.2379 22.082 27.3844 21.5664 27.3844 20.918C27.3844 20.2734 27.2379 19.7598 26.9449 19.377C26.652 18.9941 26.2555 18.8027 25.7555 18.8027C25.2711 18.8027 24.8805 18.9961 24.5836 19.3828C24.2867 19.7695 24.1383 20.2812 24.1383 20.918C24.1383 21.5586 24.2848 22.0723 24.5777 22.459C24.8746 22.8418 25.2672 23.0332 25.7555 23.0332ZM34.4652 24V17.8359H35.7191V24H34.4652ZM31.3012 20.7305H30.2348V23.0039H31.3012C31.6645 23.0039 31.9535 22.9004 32.1684 22.6934C32.3871 22.4824 32.4965 22.207 32.4965 21.8672C32.4965 21.5234 32.3871 21.248 32.1684 21.041C31.9496 20.834 31.6605 20.7305 31.3012 20.7305ZM28.975 24V17.8359H30.2348V19.7402H31.4125C32.1273 19.7402 32.6957 19.9336 33.1176 20.3203C33.5434 20.7031 33.7563 21.2188 33.7563 21.8672C33.7563 22.5195 33.5434 23.0391 33.1176 23.4258C32.6957 23.8086 32.1273 24 31.4125 24H28.975Z" fill="#A5A6AA"/>
</svg>
