<svg width="40" height="28" viewBox="0 0 40 28" fill="none" xmlns="http://www.w3.org/2000/svg">
<path d="M16.25 7C16.25 8.24264 15.2426 9.25 14 9.25C12.7574 9.25 11.75 8.24264 11.75 7C11.75 5.75736 12.7574 4.75 14 4.75C15.2426 4.75 16.25 5.75736 16.25 7ZM16.25 14C16.25 15.2426 15.2426 16.25 14 16.25C12.7574 16.25 11.75 15.2426 11.75 14C11.75 12.7574 12.7574 11.75 14 11.75C15.2426 11.75 16.25 12.7574 16.25 14ZM16.25 21C16.25 22.2426 15.2426 23.25 14 23.25C12.7574 23.25 11.75 22.2426 11.75 21C11.75 19.7574 12.7574 18.75 14 18.75C15.2426 18.75 16.25 19.7574 16.25 21Z" fill="#99A2AD"/>
<path d="M22.25 7C22.25 8.24264 21.2426 9.25 20 9.25C18.7574 9.25 17.75 8.24264 17.75 7C17.75 5.75736 18.7574 4.75 20 4.75C21.2426 4.75 22.25 5.75736 22.25 7ZM22.25 14C22.25 15.2426 21.2426 16.25 20 16.25C18.7574 16.25 17.75 15.2426 17.75 14C17.75 12.7574 18.7574 11.75 20 11.75C21.2426 11.75 22.25 12.7574 22.25 14ZM22.25 21C22.25 22.2426 21.2426 23.25 20 23.25C18.7574 23.25 17.75 22.2426 17.75 21C17.75 19.7574 18.7574 18.75 20 18.75C21.2426 18.75 22.25 19.7574 22.25 21Z" fill="#99A2AD"/>
<path d="M28.25 7C28.25 8.24264 27.2426 9.25 26 9.25C24.7574 9.25 23.75 8.24264 23.75 7C23.75 5.75736 24.7574 4.75 26 4.75C27.2426 4.75 28.25 5.75736 28.25 7ZM28.25 14C28.25 15.2426 27.2426 16.25 26 16.25C24.7574 16.25 23.75 15.2426 23.75 14C23.75 12.7574 24.7574 11.75 26 11.75C27.2426 11.75 28.25 12.7574 28.25 14ZM28.25 21C28.25 22.2426 27.2426 23.25 26 23.25C24.7574 23.25 23.75 22.2426 23.75 21C23.75 19.7574 24.7574 18.75 26 18.75C27.2426 18.75 28.25 19.7574 28.25 21Z" fill="#99A2AD"/>
</svg>
